<svg xmlns="http://www.w3.org/2000/svg" width="30.086" height="30.087" viewBox="0 0 30.086 30.087">
  <g id="Group_2017" data-name="Group 2017" transform="translate(0 0)">
    <g id="Group_2012" data-name="Group 2012" transform="translate(0 0)">
      <g id="Group_2011" data-name="Group 2011">
        <g id="Group_2010" data-name="Group 2010">
          <path id="Path_17967" data-name="Path 17967" d="M855.869,564.836H838.4a6.316,6.316,0,0,1-6.308-6.308v-17.47a6.316,6.316,0,0,1,6.308-6.308h17.47a6.316,6.316,0,0,1,6.308,6.308v17.47A6.316,6.316,0,0,1,855.869,564.836ZM838.4,535.719a5.342,5.342,0,0,0-5.338,5.338v17.47a5.342,5.342,0,0,0,5.338,5.338h17.47a5.344,5.344,0,0,0,5.338-5.338v-17.47a5.344,5.344,0,0,0-5.338-5.338Z" transform="translate(-832.091 -534.749)" fill="#272a3f"/>
        </g>
      </g>
    </g>
    <g id="Group_2016" data-name="Group 2016" transform="translate(8.29 8.279)">
      <g id="Group_2015" data-name="Group 2015">
        <g id="Group_2014" data-name="Group 2014">
          <g id="Group_2013" data-name="Group 2013">
            <path id="Path_17968" data-name="Path 17968" d="M843.111,552.541a.6.6,0,0,0,.6-.6v-5.569h5.567a.612.612,0,0,0,.425-.175.6.6,0,0,0,.177-.425.594.594,0,0,0-.6-.6h-5.569V539.61a.6.6,0,0,0-1.192,0v5.567h-5.567a.6.6,0,1,0,0,1.192h5.567v5.569a.58.58,0,0,0,.586.6Zm0,0" transform="translate(-836.362 -539.014)" fill="#272a3f"/>
          </g>
        </g>
      </g>
    </g>
  </g>
</svg>
