<svg xmlns="http://www.w3.org/2000/svg" width="24.966" height="24.133" viewBox="0 0 24.966 24.133">
  <path id="cart" d="M16.033,21.325A2.467,2.467,0,1,1,18.5,23.833,2.49,2.49,0,0,1,16.033,21.325Zm1.233,0A1.233,1.233,0,1,0,18.5,20.07,1.246,1.246,0,0,0,17.266,21.325Zm-12.333,0A2.467,2.467,0,1,1,7.4,23.833,2.49,2.49,0,0,1,4.933,21.325Zm1.233,0A1.233,1.233,0,1,0,7.4,20.07,1.246,1.246,0,0,0,6.166,21.325Zm1.469-3.764A3.09,3.09,0,0,1,4.6,14.941l-.271-1.657v-.012L2.824,4.089A1.862,1.862,0,0,0,1,2.509H.617A.616.616,0,0,1,0,1.881a.623.623,0,0,1,.617-.627H1A3.112,3.112,0,0,1,4.02,3.763h8.93a.623.623,0,0,1,.616.627.615.615,0,0,1-.616.628H4.218l1.233,7.527H21.114l.666-2.371c0-.026.012-.038.012-.063s0-.012.012-.025a.628.628,0,0,1,.753-.414.637.637,0,0,1,.432.778l-.814,2.9a.624.624,0,0,1-.593.452H5.661l.16.94a1.854,1.854,0,0,0,1.826,1.568H21.583a.624.624,0,0,1,.617.628.615.615,0,0,1-.617.627Zm12.1-9.408V5.017H16.65a.616.616,0,0,1-.617-.627.625.625,0,0,1,.617-.628h3.082V.628a.617.617,0,1,1,1.234,0V3.763h3.082a.474.474,0,0,1,.185.038.133.133,0,0,1,.087.037.25.25,0,0,1,.123.076.367.367,0,0,1,.1.1.544.544,0,0,1,.087.187.5.5,0,0,1,.037.189.906.906,0,0,1-.024.175l-.026.076a.6.6,0,0,1-.567.376H20.967V8.153a.617.617,0,1,1-1.234,0Z" transform="translate(0.15 0.15)" stroke="#000" stroke-width="0.3"/>
</svg>
