<svg xmlns="http://www.w3.org/2000/svg" width="30.086" height="30.087" viewBox="0 0 30.086 30.087">
  <g id="Group_2026" data-name="Group 2026" transform="translate(0 0)">
    <g id="Group_2020" data-name="Group 2020" transform="translate(0 0)">
      <g id="Group_2019" data-name="Group 2019">
        <g id="Group_2018" data-name="Group 2018">
          <path id="Path_17969" data-name="Path 17969" d="M818.028,564.836H800.559a6.316,6.316,0,0,1-6.309-6.308v-17.47a6.316,6.316,0,0,1,6.309-6.308h17.469a6.316,6.316,0,0,1,6.308,6.308v17.47A6.316,6.316,0,0,1,818.028,564.836Zm-17.469-29.116a5.342,5.342,0,0,0-5.338,5.338v17.47a5.342,5.342,0,0,0,5.338,5.338h17.469a5.342,5.342,0,0,0,5.338-5.338v-17.47a5.342,5.342,0,0,0-5.338-5.338Z" transform="translate(-794.25 -534.749)" fill="#272a3f"/>
        </g>
      </g>
    </g>
    <g id="Group_2025" data-name="Group 2025" transform="translate(8.291 14.442)">
      <g id="Group_2024" data-name="Group 2024">
        <g id="Group_2023" data-name="Group 2023">
          <g id="Group_2022" data-name="Group 2022">
            <g id="Group_2021" data-name="Group 2021">
              <path id="Path_17970" data-name="Path 17970" d="M811.439,543.385a.613.613,0,0,0,.425-.175.6.6,0,0,0,.177-.425.594.594,0,0,0-.6-.6H799.117a.6.6,0,1,0,0,1.192Z" transform="translate(-798.521 -542.189)" fill="#272a3f"/>
            </g>
          </g>
        </g>
      </g>
    </g>
  </g>
</svg>
