<svg xmlns="http://www.w3.org/2000/svg" width="12.891" height="9.654" viewBox="0 0 12.891 9.654">
  <g id="email_2_" data-name="email (2)" transform="translate(0 -64.266)">
    <path id="Path_17737" data-name="Path 17737" d="M7.523,174.984a1.939,1.939,0,0,1-2.155,0L.086,171.463c-.029-.02-.058-.04-.086-.061v5.77a1.186,1.186,0,0,0,1.187,1.187H11.7a1.186,1.186,0,0,0,1.187-1.187V171.4c-.028.021-.057.041-.086.061Z" transform="translate(0 -104.439)" fill="#323232"/>
    <path id="Path_17738" data-name="Path 17738" d="M.5,66.4l5.282,3.522a1.184,1.184,0,0,0,1.317,0L12.386,66.4a1.131,1.131,0,0,0,.5-.944A1.188,1.188,0,0,0,11.7,64.266H1.186A1.188,1.188,0,0,0,0,65.453a1.131,1.131,0,0,0,.5.943Z" fill="#323232"/>
  </g>
</svg>
