<svg xmlns="http://www.w3.org/2000/svg" width="19.693" height="14.75" viewBox="0 0 19.693 14.75">
  <g id="email_2_" data-name="email (2)" transform="translate(0 -64.266)">
    <path id="Path_17737" data-name="Path 17737" d="M11.493,176.875a2.962,2.962,0,0,1-3.292,0l-8.07-5.38c-.045-.03-.088-.061-.131-.093v8.816a1.812,1.812,0,0,0,1.813,1.813H17.881a1.812,1.812,0,0,0,1.813-1.813V171.4c-.043.032-.087.063-.131.093Z" transform="translate(0 -103.015)" fill="#fff"/>
    <path id="Path_17738" data-name="Path 17738" d="M.771,67.52l8.07,5.38a1.808,1.808,0,0,0,2.011,0l8.07-5.38a1.728,1.728,0,0,0,.771-1.441,1.814,1.814,0,0,0-1.812-1.812H1.812A1.815,1.815,0,0,0,0,66.079a1.727,1.727,0,0,0,.771,1.44Z" fill="#fff"/>
  </g>
</svg>
