<svg xmlns="http://www.w3.org/2000/svg" width="17.968" height="17.968" viewBox="0 0 17.968 17.968">
  <g id="Fresh" transform="translate(-3 -3.032)">
    <path id="eye-dropper" d="M1.5,17.968a1.5,1.5,0,0,1-1.5-1.5,2.892,2.892,0,0,1,.854-2.06l.154-.155a2.916,2.916,0,0,1,.846-1.846L9.84,4.421a1.915,1.915,0,0,1,2.614-2.613L13.525.736a2.622,2.622,0,0,1,3.708,3.707L16.16,5.515a1.915,1.915,0,0,1-2.614,2.613L5.56,16.114a2.911,2.911,0,0,1-1.846.846l-.154.155A2.934,2.934,0,0,1,1.5,17.968Zm1-4.792A1.912,1.912,0,0,0,2,14.468a.5.5,0,0,1-.146.354l-.293.292A1.9,1.9,0,0,0,1,16.468a.5.5,0,0,0,.5.5,1.9,1.9,0,0,0,1.354-.56l.293-.294a.5.5,0,0,1,.354-.146,1.9,1.9,0,0,0,1.354-.56l7.939-7.94L10.5,5.175,9.207,6.468l.647.645a.5.5,0,0,1-.708.708L8.5,7.175,7.207,8.468l.647.646a.5.5,0,1,1-.708.707L6.5,9.175,5.207,10.468l.646.646a.5.5,0,1,1-.707.708L4.5,11.175,3.207,12.468l.647.646a.5.5,0,1,1-.707.708ZM10.854,2.821a.914.914,0,0,0,0,1.293l3,3a.914.914,0,1,0,1.292-1.292l-3-3a.913.913,0,0,0-1.292,0ZM15.379.968a1.613,1.613,0,0,0-1.147.475L13.207,2.468,15.5,4.761l1.025-1.025A1.621,1.621,0,0,0,15.379.968Z" transform="translate(3 3.032)" fill="#64ba02"/>
  </g>
</svg>
