<svg xmlns="http://www.w3.org/2000/svg" width="15.339" height="20.133" viewBox="0 0 15.339 20.133">
  <path id="Icon_material-lock" data-name="Icon material-lock" d="M19.422,8.211h-.959V6.293a4.793,4.793,0,1,0-9.587,0V8.211H7.917A1.923,1.923,0,0,0,6,10.128v9.587a1.923,1.923,0,0,0,1.917,1.917h11.5a1.923,1.923,0,0,0,1.917-1.917V10.128A1.923,1.923,0,0,0,19.422,8.211ZM13.67,16.839a1.917,1.917,0,1,1,1.917-1.917A1.923,1.923,0,0,1,13.67,16.839Zm2.972-8.628H10.7V6.293a2.972,2.972,0,1,1,5.944,0Z" transform="translate(-6 -1.5)" fill="#fff"/>
</svg>
