<svg xmlns="http://www.w3.org/2000/svg" width="18.564" height="16.244" viewBox="0 0 18.564 16.244">
  <g id="menu-left-alt" transform="translate(-6 -7.5)">
    <path id="Path_17740" data-name="Path 17740" d="M6,8.66A1.16,1.16,0,0,1,7.16,7.5H23.4a1.16,1.16,0,0,1,0,2.321H7.16A1.16,1.16,0,0,1,6,8.66Z" transform="translate(0 0)"/>
    <path id="Path_17741" data-name="Path 17741" d="M6,26.66A1.16,1.16,0,0,1,7.16,25.5H23.4a1.16,1.16,0,0,1,0,2.321H7.16A1.16,1.16,0,0,1,6,26.66Z" transform="translate(0 -4.077)"/>
    <path id="Path_17742" data-name="Path 17742" d="M7.16,16.5a1.16,1.16,0,0,0,0,2.321h9.282a1.16,1.16,0,0,0,0-2.321Z" transform="translate(0 -2.038)"/>
  </g>
</svg>
