<svg id="Group" xmlns="http://www.w3.org/2000/svg" width="26" height="30.734" viewBox="0 0 26 30.734">
  <circle id="Oval" cx="13" cy="13" r="13" fill="#38ab00"/>
  <g id="_1._Icons_Line_add-item-alt" data-name="1. Icons / Line /  add-item-alt" transform="translate(5 5)">
    <path id="home" d="M9.666,12h-2a.334.334,0,0,1-.334-.333v-4A.334.334,0,0,0,7,7.333H5a.334.334,0,0,0-.333.334v4A.334.334,0,0,1,4.333,12h-2A1.669,1.669,0,0,1,.666,10.333V5.157l-.121.1a.333.333,0,0,1-.424-.514L5.788.076a.333.333,0,0,1,.424,0l5.667,4.667a.333.333,0,0,1-.1.569.332.332,0,0,1-.329-.055l-.121-.1v5.176A1.669,1.669,0,0,1,9.666,12ZM5,6.666H7a1,1,0,0,1,1,1v3.667H9.666a1,1,0,0,0,1-1V4.667a.274.274,0,0,1,0-.055L6,.765,1.329,4.612a.332.332,0,0,1,0,.055v5.666a1,1,0,0,0,1,1H4V7.667A1,1,0,0,1,5,6.666Z" transform="translate(2 2)" fill="#fff"/>
  </g>
  <path id="Path_5" data-name="Path 5" d="M.268.694c2.22,1.388,6.95,4.013,6.95,6.714C7.241,4.686,14.2.694,14.2.694S-1.952-.694.268.694Z" transform="translate(5.782 23.326)" fill="#38ab00"/>
</svg>
