<svg xmlns="http://www.w3.org/2000/svg" width="21.383" height="21.383" viewBox="0 0 21.383 21.383">
  <path id="offer" d="M22.3,12.524,13.349,3.577A1.976,1.976,0,0,0,11.947,3H4.988A1.994,1.994,0,0,0,3,4.988v6.959a1.984,1.984,0,0,0,.587,1.412l8.947,8.947a1.976,1.976,0,0,0,1.4.577,1.944,1.944,0,0,0,1.4-.587L22.3,15.337a1.944,1.944,0,0,0,.587-1.4,2.008,2.008,0,0,0-.587-1.412ZM6.479,7.971A1.491,1.491,0,1,1,7.971,6.479,1.489,1.489,0,0,1,6.479,7.971Z" transform="translate(-2.25 -2.25)" fill="none" stroke="#000" stroke-width="1.5"/>
</svg>
