<svg xmlns="http://www.w3.org/2000/svg" width="19" height="19" viewBox="0 0 19 19">
  <g id="Quality" transform="translate(-2 -3)">
    <path id="attach-document" d="M16.5,19H5.5A2.5,2.5,0,0,1,3,16.5v-5a.5.5,0,1,1,1,0v5A1.5,1.5,0,0,0,5.5,18h11A1.5,1.5,0,0,0,18,16.5V3.5A1.5,1.5,0,0,0,16.5,2h-7a.5.5,0,1,1,0-1h7A2.5,2.5,0,0,1,19,3.5v13A2.5,2.5,0,0,1,16.5,19Zm-4-6h-5a.5.5,0,0,1,0-1h5a.5.5,0,0,1,0,1Zm2-3h-7a.5.5,0,0,1,0-1h7a.5.5,0,1,1,0,1ZM3.5,9A3.5,3.5,0,0,1,0,5.5V.5a.5.5,0,1,1,1,0v5a2.5,2.5,0,0,0,5,0V2A1,1,0,0,0,4,2V5.5a.5.5,0,1,1-1,0V2A2,2,0,0,1,7,2V5.5A3.5,3.5,0,0,1,3.5,9Zm11-2h-5a.5.5,0,1,1,0-1h5a.5.5,0,1,1,0,1Z" transform="translate(2 3)" fill="#64ba02"/>
  </g>
</svg>
