<svg xmlns="http://www.w3.org/2000/svg" width="26.314" height="22.539" viewBox="0 0 26.314 22.539">
  <path id="store" d="M28.542,10.773,26.664,5.138a.939.939,0,0,0-.939-.639H5.065a.939.939,0,0,0-.939.639L2.248,10.773a1.118,1.118,0,0,0,0,.3v5.634a.939.939,0,0,0,.939.939h.939v9.391H6V17.647h5.634v9.391H26.664V17.647H27.6a.939.939,0,0,0,.939-.939V11.073a1.118,1.118,0,0,0,0-.3ZM24.786,25.159H13.517V17.647H24.786Zm1.878-9.391H22.908V12.012H21.03v3.756h-4.7V12.012H14.456v3.756h-4.7V12.012H7.882v3.756H4.126V11.224L5.741,6.378H25.049l1.615,4.846Z" transform="translate(-2.238 -4.498)" fill="#38ab00"/>
</svg>
