<svg xmlns="http://www.w3.org/2000/svg" width="22.547" height="21.138" viewBox="0 0 22.547 21.138">
  <g id="wishlist" transform="translate(0 0)">
    <path id="Path_17749" data-name="Path 17749" d="M11.274,3.872l-1.01-1.038C7.892.4,3.543,1.238,1.973,4.3c-.737,1.442-.9,3.523.443,6.179,1.3,2.558,3.994,5.621,8.858,8.958,4.865-3.337,7.56-6.4,8.858-8.958,1.346-2.658,1.181-4.738.443-6.179-1.57-3.065-5.919-3.908-8.291-1.47Zm0,17.266C-10.333,6.86,4.621-4.284,11.026,1.611c.085.078.168.158.248.241q.119-.125.248-.24C17.925-4.287,32.881,6.859,11.274,21.138Z" transform="translate(0 0)" fill-rule="evenodd"/>
  </g>
</svg>
