<svg xmlns="http://www.w3.org/2000/svg" width="12.699" height="12.699" viewBox="0 0 12.699 12.699">
  <path id="Icon_material-call" data-name="Icon material-call" d="M7.054,10A10.688,10.688,0,0,0,11.7,14.645l1.552-1.552a.7.7,0,0,1,.72-.169,8.048,8.048,0,0,0,2.519.4.708.708,0,0,1,.706.706v2.462a.708.708,0,0,1-.706.706A11.993,11.993,0,0,1,4.5,5.206.708.708,0,0,1,5.206,4.5H7.675a.708.708,0,0,1,.706.706,8.015,8.015,0,0,0,.4,2.519.708.708,0,0,1-.176.72L7.054,10Z" transform="translate(-4.5 -4.5)" fill="#323232"/>
</svg>
