<svg xmlns="http://www.w3.org/2000/svg" width="12.368" height="16.233" viewBox="0 0 12.368 16.233">
  <path id="Icon_material-lock" data-name="Icon material-lock" d="M16.822,6.911h-.773V5.365a3.865,3.865,0,1,0-7.73,0V6.911H7.546A1.551,1.551,0,0,0,6,8.457v7.73a1.551,1.551,0,0,0,1.546,1.546h9.276a1.551,1.551,0,0,0,1.546-1.546V8.457A1.551,1.551,0,0,0,16.822,6.911Zm-4.638,6.957a1.546,1.546,0,1,1,1.546-1.546A1.551,1.551,0,0,1,12.184,13.868Zm2.4-6.957H9.788V5.365a2.4,2.4,0,1,1,4.793,0Z" transform="translate(-6 -1.5)" fill="#323232"/>
</svg>
